<?xml version="1.0" encoding="UTF-8" standalone="no"?>
<svg
   xmlns:dc="http://purl.org/dc/elements/1.1/"
   xmlns:cc="http://creativecommons.org/ns#"
   xmlns:rdf="http://www.w3.org/1999/02/22-rdf-syntax-ns#"
   xmlns:svg="http://www.w3.org/2000/svg"
   xmlns="http://www.w3.org/2000/svg"
   xmlns:sodipodi="http://sodipodi.sourceforge.net/DTD/sodipodi-0.dtd"
   xmlns:inkscape="http://www.inkscape.org/namespaces/inkscape"
   enable-background="new 0 0 48 50"
   height="20"
   id="Layer_1"
   version="1.1"
   viewBox="0 0 20 20"
   width="20"
   xml:space="preserve"
   inkscape:version="0.91 r13725"
   sodipodi:docname="if_gear_383132.svg"><metadata
     id="metadata9"><rdf:RDF><cc:Work
         rdf:about=""><dc:format>image/svg+xml</dc:format><dc:type
           rdf:resource="http://purl.org/dc/dcmitype/StillImage" /></cc:Work></rdf:RDF></metadata><defs
     id="defs7" /><sodipodi:namedview
     pagecolor="#ffffff"
     bordercolor="#666666"
     borderopacity="1"
     objecttolerance="10"
     gridtolerance="10"
     guidetolerance="10"
     inkscape:pageopacity="0"
     inkscape:pageshadow="2"
     inkscape:window-width="1510"
     inkscape:window-height="739"
     id="namedview5"
     showgrid="false"
     inkscape:zoom="9.44"
     inkscape:cx="24.113962"
     inkscape:cy="15.204328"
     inkscape:window-x="2160"
     inkscape:window-y="185"
     inkscape:window-maximized="0"
     inkscape:current-layer="Layer_1" /><path
     d="M 16.651667,7.3728 16.43625,6.816 l 1.765833,-3.0592 -2.11875,-2.056 -3.41375,1.8908 -0.06,-0.0116 -1.095,-3.58 -3.0291663,0 -1.095,3.58 -0.06,0.0116 L 3.9166667,1.7008 1.7975,3.7572 3.5633333,6.8164 3.3479167,7.3732 0,8.346 l 0,2.908 3.1775,0.9256 0.2279167,0.7936 -1.63375,2.8736 2.1416666,2.078 2.9920834,-1.5436 0.59125,0.2864 0.98875,3.3324 3.0291663,0 0.98875,-3.3324 0.59125,-0.2864 2.992084,1.5436 2.141666,-2.078 -1.63375,-2.8736 L 16.8225,12.1796 20,11.254 20,8.346 Z M 10,13.39 C 8.0266667,13.2856 6.4583333,11.7204 6.4583333,9.8 6.4583333,7.8796 8.0266667,6.3144 10,6.21 c 1.973333,0.1044 3.541667,1.6692 3.541667,3.59 0,1.9204 -1.568334,3.4856 -3.541667,3.59 z"
     id="path3"
     inkscape:connector-curvature="0"
     style="fill:#231f20"
     sodipodi:nodetypes="ccccccccccccccccccccccccccccccccccscsc" /></svg>